<svg viewBox="0 0 24 24" fill="none" xmlns="http://www.w3.org/2000/svg" stroke="#2563eb" stroke-width="2" stroke-linecap="round" stroke-linejoin="round">
  <path d="M2 7V4C2 2.89543 2.89543 2 4 2H7"/>
  <path d="M17 2H20C21.1046 2 22 2.89543 22 4V7"/>
  <path d="M22 17V20C22 21.1046 21.1046 22 20 22H17"/>
  <path d="M7 22H4C2.89543 22 2 21.1046 2 20V17"/>
  <path d="M12 7L16.5 9.5V14.5L12 17L7.5 14.5V9.5L12 7Z"/>
  <path d="M12 17V12"/>
  <path d="M12 12L16.5 9.5"/>
  <path d="M12 12L7.5 9.5"/>
</svg>
